<svg xmlns="http://www.w3.org/2000/svg" width="24" height="18" viewBox="0 0 24 24" fill="none">
  <path d="M21 12C21 13.1819 20.7672 14.3522 20.3149 15.4442C19.8626 16.5361 19.1997 17.5282 18.364 18.364C17.5282 19.1997 16.5361 19.8626 15.4442 20.3149C14.3522 20.7672 13.1819 21 12 21C10.8181 21 9.64778 20.7672 8.55585 20.3149C7.46392 19.8626 6.47177 19.1997 5.63604 18.364C4.80031 17.5282 4.13738 16.5361 3.68508 15.4442C3.23279 14.3522 3 13.1819 3 12C3 9.61305 3.94821 7.32387 5.63604 5.63604C7.32387 3.94821 9.61305 3 12 3C14.3869 3 16.6761 3.94821 18.364 5.63604C20.0518 7.32387 21 9.61305 21 12Z" stroke="#0B0223" stroke-width="1.5" stroke-linecap="round" stroke-linejoin="round"/>
  <path d="M15.91 11.672C15.9686 11.7044 16.0174 11.752 16.0513 11.8097C16.0853 11.8673 16.1032 11.9331 16.1032 12C16.1032 12.0669 16.0853 12.1327 16.0513 12.1903C16.0174 12.248 15.9686 12.2955 15.91 12.328L10.307 15.441C10.2499 15.4727 10.1855 15.4889 10.1202 15.4881C10.0549 15.4873 9.99099 15.4694 9.93472 15.4363C9.87845 15.4031 9.8318 15.3559 9.79941 15.2992C9.76701 15.2425 9.74998 15.1783 9.75 15.113V8.887C9.75 8.601 10.057 8.421 10.307 8.56L15.91 11.672Z" fill="url(#paint0_linear_61_274)" stroke="url(#paint1_linear_61_274)" stroke-width="1.5" stroke-linecap="round" stroke-linejoin="round"/>
  <defs>
    <linearGradient id="paint0_linear_61_274" x1="10.5844" y1="11.9992" x2="15.3371" y2="11.9992" gradientUnits="userSpaceOnUse">
      <stop stop-color="#FF42A5"/>
      <stop offset="1" stop-color="#FF42A5"/>
    </linearGradient>
    <linearGradient id="paint1_linear_61_274" x1="10.5844" y1="11.9992" x2="15.3371" y2="11.9992" gradientUnits="userSpaceOnUse">
      <stop stop-color="#FF42A5"/>
      <stop offset="1" stop-color="#FF42A5"/>
    </linearGradient>
  </defs>
</svg>